<svg width="320" height="332" viewBox="0 0 320 332" fill="none" xmlns="http://www.w3.org/2000/svg">
<path d="M307.025 161.495C306.97 161.542 306.901 161.573 306.828 161.581C306.756 161.59 306.682 161.577 306.616 161.544C306.551 161.511 306.497 161.459 306.461 161.395C306.425 161.331 306.409 161.258 306.415 161.185C307.475 146.215 307.255 131.085 302.725 116.985C291.245 81.2245 253.605 69.6545 219.665 72.2645C192.525 74.3445 167.055 85.4345 145.625 102.415C110.525 130.235 91.0353 171.474 90.0553 216.164C89.8086 227.518 90.9653 237.558 93.5253 246.285C98.6353 263.755 108.445 280.255 122.975 290.965C135.245 300.015 151.515 303.295 166.605 300.885C181.605 298.491 193.159 291.161 201.265 278.895C208.805 267.485 209.195 251.605 205.465 238.485C202.519 228.111 197.779 218.098 191.245 208.445C181.799 194.491 171.475 180.148 160.275 165.415C156.815 160.875 156.965 154.685 157.525 149.275C157.532 149.216 157.554 149.161 157.589 149.114C157.623 149.067 157.669 149.029 157.723 149.005C157.776 148.981 157.835 148.971 157.893 148.976C157.951 148.981 158.007 149.001 158.055 149.035C159.309 149.901 160.059 150.438 160.305 150.645C180.652 167.525 198.532 182.141 213.945 194.495C219.099 198.621 224.942 202.611 231.475 206.465C247.745 216.065 268.695 216.705 283.685 204.715C285.812 203.015 288.889 199.911 292.915 195.405C292.963 195.352 293.023 195.313 293.09 195.291C293.158 195.269 293.23 195.266 293.299 195.281C293.368 195.296 293.432 195.33 293.484 195.378C293.536 195.426 293.575 195.487 293.595 195.555C295.585 202.065 295.515 206.445 293.075 213.695C290.762 220.568 289.275 227.961 288.615 235.875C287.095 254.335 288.245 271.674 295.675 288.354C299.035 295.904 299.965 299.725 299.485 307.135C299.482 307.206 299.458 307.274 299.417 307.332C299.377 307.391 299.32 307.437 299.255 307.465C299.189 307.494 299.116 307.505 299.044 307.496C298.972 307.487 298.903 307.459 298.845 307.414C280.855 293.314 257.475 286.585 234.725 292.835C229.592 294.248 223.372 296.978 216.065 301.025C202.655 308.465 189.965 314.914 176.245 320.804C162.325 326.791 148.199 330.244 133.865 331.164C118.859 332.124 104.359 330.781 90.3653 327.135C50.5552 316.765 19.9053 285.255 7.31527 246.365C3.4086 234.305 1.0853 221.911 0.345297 209.185C-2.08803 167.205 8.35526 128.791 31.6753 93.9445C34.1886 90.1912 36.392 87.0679 38.2853 84.5745C41.292 80.6212 42.972 77.5212 43.3253 75.2745C44.0653 70.5478 43.2353 66.4945 40.8353 63.1145C28.842 46.2412 19.3153 32.8445 12.2553 22.9245C9.43528 18.9645 8.34198 14.7012 8.97531 10.1345C8.98287 10.0791 9.00435 10.0265 9.03781 9.98168C9.07128 9.93686 9.1156 9.90129 9.1666 9.87829C9.21759 9.8553 9.27357 9.84563 9.32931 9.85021C9.38506 9.8548 9.43872 9.87348 9.48526 9.90451C22.8253 19.0512 37.5553 29.2012 53.6753 40.3545C59.3419 44.2745 63.4119 46.4478 65.8853 46.8745C70.4186 47.6478 74.9153 46.3179 79.3753 42.8845C102.722 24.9379 127.175 12.5078 152.735 5.59451C177.642 -1.14548 202.595 -1.79547 227.595 3.64454C259.515 10.5845 285.255 29.4045 302.295 57.1545C316.062 79.5879 321.739 104.845 319.325 132.925C318.839 138.558 317.845 143.811 316.345 148.685C314.635 154.265 311.515 157.705 307.025 161.495Z" fill="url(#paint0_linear_14_80)"/>
<defs>
<linearGradient id="paint0_linear_14_80" x1="159.933" y1="-6.99087e-06" x2="159.933" y2="331.465" gradientUnits="userSpaceOnUse">
<stop stop-color="#FFD700"/>
<stop offset="1" stop-color="#FF9A5C"/>
</linearGradient>
</defs>
</svg>
